<?xml version="1.0" encoding="UTF-8"?>
<!DOCTYPE svg PUBLIC "-//W3C//DTD SVG 1.1//EN" "http://www.w3.org/Graphics/SVG/1.1/DTD/svg11.dtd">
<!-- Creator: CorelDRAW X7 -->
<?xml-stylesheet href="Карта1.css" type="text/css"?>
<svg xmlns="http://www.w3.org/2000/svg" xml:space="preserve" width="1100px" height="778px" version="1.1" style="shape-rendering:geometricPrecision; text-rendering:geometricPrecision; image-rendering:optimizeQuality; fill-rule:evenodd; clip-rule:evenodd"
viewBox="0 0 110000000 77777778"
 xmlns:xlink="http://www.w3.org/1999/xlink">
 <g id="Слой_x0020_1">
  <metadata id="CorelCorpID_0Corel-Layer"/>
  <path class="fil0" d="M62637852 32476259l100444 0 -815 2371 -9740 27222 42185 27518 104148 -7444 39778 47074 39741 29667 37222 -19667 22370 32222 -32444 39630 2555 29889 29889 -19852 29778 0 -9852 52148 39519 -37222 34851 22259 14778 74370 37222 39926 74519 22297 32296 -17334 -109185 -104296 -114148 -139111 -32185 -84445 27259 -17185 49593 69334 24963 86963 158703 173851 37148 14889 54704 -57296 37222 -2370 62000 39740 24963 -67037 104371 -12407 86815 4926 -24852 42259 -32297 27408 29778 59444 -39592 47259 -111815 9852 -129260 -22333 -76851 42185 -57037 79518 -104186 -2555 -151666 114222 -114148 52148 -119037 -4963 -57149 -44703 17445 -24741 39667 -119148 -4963 -47334 -104297 -81777 -37222 4926 -72074 -34852 -44593 37222 -57148 -24778 67000 -101741 116519 -69518 97111 -17333 27222 -17519 -37148 -44593 -14778 -81925 -30704 -14186 -14592 -13037 0 -37z"/>
 </g>
</svg>
